<svg xmlns="http://www.w3.org/2000/svg" xmlns:xlink="http://www.w3.org/1999/xlink" version="1.1" x="0px" y="0px" viewBox="0 0 100 125" style="enable-background:new 0 0 100 100; color:#154cb0;" xml:space="preserve">
    <path fill="#154cb0" d="M78.2,27.9c-14.7,9.8-28.9-17.8-43.6-10.8c-1.3,10.2-2.7,20.7-4,31.5c14.8-13.1,29,14.2,43.7,10c1.2-0.3,2.2-1.8,2.4-3.1  c1.1-8.8,2.3-17.8,3.4-26.9C80.1,27.3,79.3,27.1,78.2,27.9z"/>
    <path fill="#154cb0" d="M35,12.3c0.2-2.1-1.3-4-3.4-4.3c-2.1-0.2-4,1.3-4.3,3.4c-0.2,1.4,0.5,2.7,1.5,3.5L20,89.8c-0.1,1,0.6,2,1.7,2.1  c1,0.1,2-0.6,2.1-1.7l8.9-74.9C33.9,14.9,34.8,13.7,35,12.3z"/>
</svg>
